<?xml version="1.0" encoding="UTF-8"?>
<svg xmlns="http://www.w3.org/2000/svg" xmlns:xlink="http://www.w3.org/1999/xlink" width="458pt" height="458pt" viewBox="0 0 458 458" version="1.1">
<g id="surface1">
<path style=" stroke:none;fill-rule:nonzero;fill:rgb(0%,0%,0%);fill-opacity:1;" d="M 149.496094 198.519531 C 147.398438 200.214844 147.316406 200.375 148.929688 200.777344 C 150.382812 201.101562 149.574219 202.308594 142.320312 210.050781 L 134.011719 218.839844 L 128.691406 208.195312 C 120.628906 192.148438 122.242188 190.941406 104.179688 226.984375 C 96.117188 243.191406 89.503906 257.300781 89.503906 258.429688 C 89.503906 260.125 89.90625 260.445312 91.921875 260.445312 C 94.261719 260.445312 94.582031 259.882812 107.726562 233.675781 L 121.113281 206.90625 L 126.109375 216.5 C 132.804688 229.5625 132.320312 229.5625 144.738281 216.179688 C 150.542969 209.890625 154.496094 206.179688 154.65625 206.90625 C 155.058594 208.4375 155.863281 208.359375 157.476562 206.582031 C 158.363281 205.617188 158.847656 203.679688 158.847656 200.9375 L 158.847656 196.746094 L 155.300781 196.746094 C 152.882812 196.746094 151.109375 197.3125 149.496094 198.519531 Z M 149.496094 198.519531 "/>
<path style=" stroke:none;fill-rule:nonzero;fill:rgb(0%,0%,0%);fill-opacity:1;" d="M 332.695312 200.535156 C 332.292969 203.921875 332.453125 204.566406 334.226562 206.34375 C 336.082031 208.277344 336.242188 208.277344 336.242188 206.824219 C 336.242188 205.695312 339.386719 208.4375 346.5625 216.019531 C 359.464844 229.644531 358.980469 229.644531 365.59375 216.339844 L 370.269531 206.824219 L 383.734375 233.675781 C 397.121094 260.445312 397.121094 260.527344 399.539062 260.285156 C 400.992188 260.125 402.039062 259.558594 402.203125 258.753906 C 402.363281 257.949219 395.75 243.917969 387.527344 227.46875 C 369.140625 190.859375 370.753906 192.070312 362.851562 208.035156 C 360.03125 213.839844 357.449219 218.4375 357.207031 218.355469 C 356.964844 218.195312 353.175781 214.324219 348.820312 209.730469 C 342.695312 203.195312 341.160156 201.179688 342.210938 200.777344 C 343.417969 200.375 343.339844 200.132812 341.886719 198.519531 C 340.679688 197.230469 339.308594 196.746094 336.726562 196.746094 L 333.257812 196.746094 Z M 332.695312 200.535156 "/>
<path style=" stroke:none;fill-rule:nonzero;fill:rgb(0%,0%,0%);fill-opacity:1;" d="M 160.945312 198.761719 C 159.65625 202.066406 160.460938 202.230469 182.070312 202.550781 C 201.746094 202.792969 202.957031 202.875 205.617188 204.566406 C 213.195312 209.246094 213.195312 219.726562 205.695312 224.324219 C 203.4375 225.773438 201.261719 226.097656 193.039062 226.417969 C 182.714844 226.824219 181.265625 227.386719 182.957031 230.453125 C 183.359375 231.175781 190.375 238.433594 198.519531 246.496094 C 210.050781 258.027344 213.679688 261.09375 214.890625 260.769531 C 215.777344 260.527344 218.519531 257.785156 220.9375 254.640625 C 223.921875 250.851562 225.453125 249.398438 225.613281 250.289062 C 226.257812 253.511719 228.917969 249.804688 229 245.53125 C 229 240.773438 228.273438 240.046875 223.921875 240.691406 C 221.257812 241.09375 219.808594 241.820312 218.921875 243.191406 C 217.792969 244.886719 217.792969 245.125 218.921875 245.125 C 220.695312 245.125 220.371094 246.015625 217.066406 249.804688 L 214.082031 253.269531 L 203.195312 242.304688 L 192.3125 231.417969 L 198.601562 231.417969 C 210.375 231.417969 216.90625 225.371094 216.90625 214.484375 C 216.90625 207.148438 213.839844 202.066406 207.472656 198.84375 C 203.761719 196.988281 161.671875 196.90625 160.945312 198.761719 Z M 160.945312 198.761719 "/>
<path style=" stroke:none;fill-rule:nonzero;fill:rgb(0%,0%,0%);fill-opacity:1;" d="M 282.945312 199.40625 C 278.1875 201.90625 274.800781 207.390625 274.316406 213.277344 C 273.992188 216.90625 274.316406 218.519531 276.171875 222.144531 C 279.394531 228.839844 282.945312 230.855469 292.054688 231.417969 L 299.152344 231.820312 L 288.265625 242.707031 L 277.300781 253.59375 L 275.6875 251.578125 C 271.253906 245.933594 270.769531 245.125 272.058594 245.125 C 272.785156 245.125 273.347656 244.804688 273.347656 244.480469 C 273.347656 242.949219 270.285156 241.175781 266.816406 240.691406 L 263.109375 240.128906 L 262.542969 243.917969 C 262.058594 246.820312 262.300781 248.109375 263.351562 249.804688 C 264.558594 251.65625 264.800781 251.738281 265.609375 250.609375 C 266.253906 249.480469 267.058594 250.125 270.6875 254.804688 C 273.027344 257.785156 275.527344 260.527344 276.25 260.769531 C 278.1875 261.496094 308.988281 230.933594 308.667969 228.597656 C 308.425781 227.144531 307.617188 226.984375 298.667969 226.5 C 291.089844 226.179688 288.347656 225.695312 286.25 224.484375 C 282.058594 222.066406 280.203125 219 280.203125 214.484375 C 280.203125 209.96875 282.058594 206.90625 286.332031 204.40625 C 288.832031 202.957031 290.925781 202.792969 309.632812 202.390625 L 330.195312 201.988281 L 330.195312 197.957031 L 308.34375 197.714844 C 286.8125 197.554688 286.492188 197.554688 282.945312 199.40625 Z M 282.945312 199.40625 "/>
<path style=" stroke:none;fill-rule:nonzero;fill:rgb(0%,0%,0%);fill-opacity:1;" d="M 110.789062 232.546875 C 110.550781 233.191406 110.46875 234.402344 110.628906 235.207031 C 110.871094 236.5 112.082031 236.660156 123.613281 236.902344 L 136.269531 237.144531 L 139.898438 244.320312 C 142.640625 249.722656 143.207031 251.578125 142.320312 251.578125 C 140.867188 251.578125 140.867188 251.738281 141.996094 254.238281 C 142.800781 256.011719 146.996094 258.027344 149.816406 258.027344 C 150.222656 258.027344 151.1875 256.496094 151.832031 254.5625 C 152.882812 251.496094 152.882812 250.769531 151.832031 248.753906 C 150.867188 247.0625 150.460938 246.820312 149.898438 247.625 C 149.09375 249.078125 149.171875 249.238281 144.414062 239.644531 L 140.304688 231.417969 L 125.789062 231.417969 C 113.855469 231.417969 111.113281 231.660156 110.789062 232.546875 Z M 110.789062 232.546875 "/>
<path style=" stroke:none;fill-rule:nonzero;fill:rgb(0%,0%,0%);fill-opacity:1;" d="M 350.433594 233.191406 C 349.789062 234.242188 347.691406 238.191406 345.839844 242.0625 C 343.015625 247.867188 342.210938 248.835938 341.484375 247.789062 C 340.679688 246.738281 340.4375 246.902344 339.550781 248.996094 C 338.257812 252.140625 339.789062 258.027344 341.886719 258.027344 C 344.953125 258.027344 348.417969 256.171875 349.628906 253.753906 C 350.835938 251.417969 350.835938 251.335938 349.304688 251.738281 C 347.855469 252.140625 348.097656 251.253906 351.402344 244.644531 L 355.109375 237.0625 L 367.609375 236.902344 C 378.171875 236.660156 380.109375 236.5 380.832031 235.289062 C 381.480469 234.320312 381.398438 233.597656 380.671875 232.710938 C 379.785156 231.660156 377.367188 231.417969 365.59375 231.417969 C 351.964844 231.417969 351.5625 231.5 350.433594 233.191406 Z M 350.433594 233.191406 "/>
</g>
</svg>
